<?xml version="1.0" standalone="no"?><?xml-stylesheet type="text/css" href="https://wps.processon.com/themes/default/wps/mind/icons/icons.css" ?><!DOCTYPE svg PUBLIC "-//W3C//DTD SVG 1.1//EN" "http://www.w3.org/Graphics/SVG/1.1/DTD/svg11.dtd"><svg id="SvgjsSvg1006" width="699" height="528" xmlns="http://www.w3.org/2000/svg" version="1.1" xmlns:xlink="http://www.w3.org/1999/xlink" xmlns:svgjs="http://svgjs.com/svgjs"><defs id="SvgjsDefs1007"><pattern patternUnits="userSpaceOnUse" id="pattern_mark_0" width="300" height="300"><text x="150" y="100" fill="rgba(229,229,229,0.8)" font-size="18" transform="rotate(-45, 150, 150)" style="dominant-baseline: middle; text-anchor: middle;"></text></pattern><pattern patternUnits="userSpaceOnUse" id="pattern_mark_1" width="300" height="300"><text x="150" y="200" fill="rgba(229,229,229,0.8)" font-size="18" transform="rotate(-45, 150, 150)" style="dominant-baseline: middle; text-anchor: middle;"></text></pattern><marker id="SvgjsMarker1055" markerWidth="12" markerHeight="8" refX="9" refY="4" viewBox="0 0 12 8" orient="auto" markerUnits="userSpaceOnUse" stroke-dasharray="0,0"><path id="SvgjsPath1056" d="M0,0 L12,4 L0,8 L0,0" fill="#323232" stroke="#323232" stroke-width="1"></path></marker><marker id="SvgjsMarker1059" markerWidth="12" markerHeight="8" refX="9" refY="4" viewBox="0 0 12 8" orient="auto" markerUnits="userSpaceOnUse" stroke-dasharray="0,0"><path id="SvgjsPath1060" d="M0,0 L12,4 L0,8 L0,0" fill="#323232" stroke="#323232" stroke-width="1"></path></marker><marker id="SvgjsMarker1067" markerWidth="12" markerHeight="8" refX="9" refY="4" viewBox="0 0 12 8" orient="auto" markerUnits="userSpaceOnUse" stroke-dasharray="0,0"><path id="SvgjsPath1068" d="M0,0 L12,4 L0,8 L0,0" fill="#323232" stroke="#323232" stroke-width="1"></path></marker><marker id="SvgjsMarker1075" markerWidth="12" markerHeight="8" refX="9" refY="4" viewBox="0 0 12 8" orient="auto" markerUnits="userSpaceOnUse" stroke-dasharray="0,0"><path id="SvgjsPath1076" d="M0,0 L12,4 L0,8 L0,0" fill="#323232" stroke="#323232" stroke-width="1"></path></marker><marker id="SvgjsMarker1079" markerWidth="12" markerHeight="8" refX="9" refY="4" viewBox="0 0 12 8" orient="auto" markerUnits="userSpaceOnUse" stroke-dasharray="0,0"><path id="SvgjsPath1080" d="M0,0 L12,4 L0,8 L0,0" fill="#323232" stroke="#323232" stroke-width="1"></path></marker><marker id="SvgjsMarker1083" markerWidth="12" markerHeight="8" refX="9" refY="4" viewBox="0 0 12 8" orient="auto" markerUnits="userSpaceOnUse" stroke-dasharray="0,0"><path id="SvgjsPath1084" d="M0,0 L12,4 L0,8 L0,0" fill="#323232" stroke="#323232" stroke-width="1"></path></marker><pattern patternUnits="userSpaceOnUse" id="wpspattern_mark_0" width="300" height="300"><text x="150" y="100" fill="#0000004d" font-size="18" transform="rotate(-45, 150, 150)" style="dominant-baseline: middle; text-anchor: middle;"></text></pattern></defs><rect id="svgbackgroundid" width="699" height="528" fill="rgb(255,255,255)"></rect><rect id="SvgjsRect1009" width="699" height="528" fill="url(#pattern_mark_0)"></rect><rect id="SvgjsRect1010" width="699" height="528" fill="url(#pattern_mark_1)"></rect><g id="SvgjsG1011" transform="translate(300,25)"><path id="SvgjsPath1012" d="M 0 4Q 0 0 4 0L 108 0Q 112 0 112 4L 112 46Q 112 50 108 50L 4 50Q 0 50 0 46Z" stroke="rgba(33,41,48,1)" stroke-width="1.5" fill-opacity="1" fill="#ffffff"></path><g id="SvgjsG1013"><text id="SvgjsText1014" font-family="&quot;Microsoft YaHei&quot;, 微软雅黑, Arial" text-anchor="middle" font-size="13px" width="92px" fill="#323232" font-weight="400" align="middle" lineHeight="125%" anchor="middle" family="&quot;Microsoft YaHei&quot;, 微软雅黑, Arial" size="13px" weight="400" font-style="" opacity="1" y="14.375" transform="rotate(0)"><tspan id="SvgjsTspan1015" dy="16.25" x="56"><tspan id="SvgjsTspan1016" style="">普通用户</tspan></tspan></text></g></g><g id="SvgjsG1017" transform="translate(287,127)"><path id="SvgjsPath1018" d="M 3.5673089695637668 36.80950454977872Q 0 35 3.5673089695637668 33.19049545022128L 65.43269103043623 1.809504549778722Q 69 0 72.56730896956377 1.809504549778722L 134.43269103043625 33.19049545022128Q 138 35 134.43269103043625 36.80950454977872L 72.56730896956377 68.19049545022128Q 69 70 65.43269103043623 68.19049545022128Z" stroke="rgba(33,41,48,1)" stroke-width="1.5" fill-opacity="1" fill="#ffffff"></path><g id="SvgjsG1019"><text id="SvgjsText1020" font-family="&quot;Microsoft YaHei&quot;, 微软雅黑, Arial" text-anchor="middle" font-size="13px" width="118px" fill="#323232" font-weight="400" align="middle" lineHeight="125%" anchor="middle" family="&quot;Microsoft YaHei&quot;, 微软雅黑, Arial" size="13px" weight="400" font-style="" opacity="1" y="24.375" transform="rotate(0)"><tspan id="SvgjsTspan1021" dy="16.25" x="69"><tspan id="SvgjsTspan1022" style="">选择成为会员</tspan></tspan></text></g></g><g id="SvgjsG1023" transform="translate(128.5,249)"><path id="SvgjsPath1024" d="M 0 4Q 0 0 4 0L 96 0Q 100 0 100 4L 100 46Q 100 50 96 50L 4 50Q 0 50 0 46Z" stroke="rgba(33,41,48,1)" stroke-width="1.5" fill-opacity="1" fill="#ffffff"></path><g id="SvgjsG1025"><text id="SvgjsText1026" font-family="&quot;Microsoft YaHei&quot;, 微软雅黑, Arial" text-anchor="middle" font-size="13px" width="80px" fill="#323232" font-weight="400" align="middle" lineHeight="125%" anchor="middle" family="&quot;Microsoft YaHei&quot;, 微软雅黑, Arial" size="13px" weight="400" font-style="" opacity="1" y="14.375" transform="rotate(0)"><tspan id="SvgjsTspan1027" dy="16.25" x="50"><tspan id="SvgjsTspan1028" style="">非会员</tspan></tspan></text></g></g><g id="SvgjsG1029" transform="translate(483.5,249)"><path id="SvgjsPath1030" d="M 0 4Q 0 0 4 0L 96 0Q 100 0 100 4L 100 46Q 100 50 96 50L 4 50Q 0 50 0 46Z" stroke="rgba(33,41,48,1)" stroke-width="1.5" fill-opacity="1" fill="#ffffff"></path><g id="SvgjsG1031"><text id="SvgjsText1032" font-family="&quot;Microsoft YaHei&quot;, 微软雅黑, Arial" text-anchor="middle" font-size="13px" width="80px" fill="#323232" font-weight="400" align="middle" lineHeight="125%" anchor="middle" family="&quot;Microsoft YaHei&quot;, 微软雅黑, Arial" size="13px" weight="400" font-style="" opacity="1" y="14.375" transform="rotate(0)"><tspan id="SvgjsTspan1033" dy="16.25" x="50"><tspan id="SvgjsTspan1034" style="">会员</tspan></tspan></text></g></g><g id="SvgjsG1035" transform="translate(25,351)"><path id="SvgjsPath1036" d="M 0 4Q 0 0 4 0L 303 0Q 307 0 307 4L 307 46Q 307 50 303 50L 4 50Q 0 50 0 46Z" stroke="rgba(33,41,48,1)" stroke-width="1.5" fill-opacity="1" fill="#ffffff"></path><g id="SvgjsG1037"><text id="SvgjsText1038" font-family="&quot;Microsoft YaHei&quot;, 微软雅黑, Arial" text-anchor="middle" font-size="13px" width="287px" fill="#323232" font-weight="400" align="middle" lineHeight="125%" anchor="middle" family="&quot;Microsoft YaHei&quot;, 微软雅黑, Arial" size="13px" weight="400" font-style="" opacity="1" y="14.375" transform="rotate(0)"><tspan id="SvgjsTspan1039" dy="16.25" x="153.5"><tspan id="SvgjsTspan1040" style="">绑定分会，注册会议（但是会议费用较高）</tspan></tspan></text></g></g><g id="SvgjsG1041" transform="translate(432,351)"><path id="SvgjsPath1042" d="M 0 4Q 0 0 4 0L 199 0Q 203 0 203 4L 203 46Q 203 50 199 50L 4 50Q 0 50 0 46Z" stroke="rgba(33,41,48,1)" stroke-width="1.5" fill-opacity="1" fill="#ffffff"></path><g id="SvgjsG1043"><text id="SvgjsText1044" font-family="&quot;Microsoft YaHei&quot;, 微软雅黑, Arial" text-anchor="middle" font-size="13px" width="183px" fill="#323232" font-weight="400" align="middle" lineHeight="125%" anchor="middle" family="&quot;Microsoft YaHei&quot;, 微软雅黑, Arial" size="13px" weight="400" font-style="" opacity="1" y="14.375" transform="rotate(0)"><tspan id="SvgjsTspan1045" dy="16.25" x="101.5"><tspan id="SvgjsTspan1046" style="">缴费，验证成为正式会员</tspan></tspan></text></g></g><g id="SvgjsG1047" transform="translate(393,453)"><path id="SvgjsPath1048" d="M 0 4Q 0 0 4 0L 277 0Q 281 0 281 4L 281 46Q 281 50 277 50L 4 50Q 0 50 0 46Z" stroke="rgba(33,41,48,1)" stroke-width="1.5" fill-opacity="1" fill="#ffffff"></path><g id="SvgjsG1049"><text id="SvgjsText1050" font-family="&quot;Microsoft YaHei&quot;, 微软雅黑, Arial" text-anchor="middle" font-size="13px" width="261px" fill="#323232" font-weight="400" align="middle" lineHeight="125%" anchor="middle" family="&quot;Microsoft YaHei&quot;, 微软雅黑, Arial" size="13px" weight="400" font-style="" opacity="1" y="14.375" transform="rotate(0)"><tspan id="SvgjsTspan1051" dy="16.25" x="140.5"><tspan id="SvgjsTspan1052" style="">绑定分会，注册会议（会议费用较低）</tspan></tspan></text></g></g><g id="SvgjsG1053"><path id="SvgjsPath1054" d="M356 75.75L356 101Q356 101 356 101L356 101Q356 101 356 101L356 124.94999999999999" stroke="#323232" stroke-width="1" fill="none" marker-end="url(#SvgjsMarker1055)"></path></g><g id="SvgjsG1057"><path id="SvgjsPath1058" d="M286.25 162L182.5 162Q178.5 162 178.5 166L178.5 246.95" stroke="#323232" stroke-width="1" fill="none" marker-end="url(#SvgjsMarker1059)"></path><rect id="SvgjsRect1061" width="13" height="18" x="183.4" y="153" fill="#ffffff"></rect><text id="SvgjsText1062" font-family="&quot;Microsoft YaHei&quot;, 微软雅黑, Arial" text-anchor="middle" font-size="13px" width="13px" fill="#323232" font-weight="400" align="top" lineHeight="16px" anchor="middle" family="&quot;Microsoft YaHei&quot;, 微软雅黑, Arial" size="13px" weight="400" font-style="" opacity="1" y="150.375" transform="rotate(0)"><tspan id="SvgjsTspan1063" dy="16.25" x="189.9"><tspan id="SvgjsTspan1064" style="">否</tspan></tspan></text></g><g id="SvgjsG1065"><path id="SvgjsPath1066" d="M425.75 162L529.5 162Q533.5 162 533.5 166L533.5 246.95" stroke="#323232" stroke-width="1" fill="none" marker-end="url(#SvgjsMarker1067)"></path><rect id="SvgjsRect1069" width="13" height="18" x="515.6" y="153" fill="#ffffff"></rect><text id="SvgjsText1070" font-family="&quot;Microsoft YaHei&quot;, 微软雅黑, Arial" text-anchor="middle" font-size="13px" width="13px" fill="#323232" font-weight="400" align="top" lineHeight="16px" anchor="middle" family="&quot;Microsoft YaHei&quot;, 微软雅黑, Arial" size="13px" weight="400" font-style="" opacity="1" y="150.375" transform="rotate(0)"><tspan id="SvgjsTspan1071" dy="16.25" x="522.1"><tspan id="SvgjsTspan1072" style="">是</tspan></tspan></text></g><g id="SvgjsG1073"><path id="SvgjsPath1074" d="M178.5 299.75L178.5 325Q178.5 325 178.5 325L178.5 325Q178.5 325 178.5 325L178.5 348.95" stroke="#323232" stroke-width="1" fill="none" marker-end="url(#SvgjsMarker1075)"></path></g><g id="SvgjsG1077"><path id="SvgjsPath1078" d="M533.5 299.75L533.5 325Q533.5 325 533.5 325L533.5 325Q533.5 325 533.5 325L533.5 348.95" stroke="#323232" stroke-width="1" fill="none" marker-end="url(#SvgjsMarker1079)"></path></g><g id="SvgjsG1081"><path id="SvgjsPath1082" d="M533.5 401.75L533.5 427Q533.5 427 533.5 427L533.5 427Q533.5 427 533.5 427L533.5 450.95000000000005" stroke="#323232" stroke-width="1" fill="none" marker-end="url(#SvgjsMarker1083)"></path></g><g id="SvgjsG1085"></g><rect id="SvgjsRect1086" width="699" height="528" fill="url(#wpspattern_mark_0)"></rect></svg>